<?xml version="1.0" encoding="UTF-8"?>
<svg id="Layer_2" data-name="Layer 2" xmlns="http://www.w3.org/2000/svg" xmlns:xlink="http://www.w3.org/1999/xlink" viewBox="0 0 74.03 74.03">
  <defs>
    <style>
      .cls-1 {
        fill: url(#linear-gradient);
      }
    </style>
    <linearGradient id="linear-gradient" x1="242.48" y1="9.19" x2="1.77" y2="41.78" gradientUnits="userSpaceOnUse">
      <stop offset="0" stop-color="#1f183b"/>
      <stop offset="1" stop-color="#7c2d77"/>
    </linearGradient>
  </defs>
  <g id="Layer_1-2" data-name="Layer 1">
    <path class="cls-1" d="M74.03,37.01c.09,20.39-16.69,37.28-37.5,37.01C16.47,73.77-.04,57.38,0,36.97,.04,16.48,16.52,.44,36.13,0c21.26-.46,38.01,16.75,37.9,37h0Zm-5.31,4.46c-.03-.54-.02-1.28-.11-2.01-.17-1.44-.32-2.88-.6-4.3-.58-2.96-1.62-5.76-3.06-8.41-2.66-4.88-6.36-8.78-11.18-11.58-2.77-1.61-5.73-2.67-8.91-3.1-1.94-.26-3.88-.25-5.82,.05-3.19,.49-6.08,1.66-8.59,3.7-3.62,2.95-5.58,6.82-6.17,11.4-.21,1.62-.08,3.24,.32,4.83,.58,2.28,1.69,4.27,3.2,6.05,.17,.2,.4,.29,.6,.17,.15-.09,.31-.29,.34-.46,.3-1.79,.71-3.54,1.37-5.22,.9-2.32,2.17-4.4,3.99-6.12,1.79-1.69,3.9-2.79,6.28-3.34,2.01-.46,4.04-.55,6.09-.29,1.92,.24,3.74,.81,5.43,1.74,2.69,1.48,4.74,3.61,6.28,6.24,1.29,2.2,2.12,4.58,2.57,7.09,.41,2.27,.49,4.54,.22,6.82-.31,2.67-1,5.26-2.02,7.75-1.26,3.1-3.09,5.82-5.56,8.09-2.73,2.51-5.92,4.28-9.29,5.73-.39,.17-.75,.06-.9-.25-.17-.35-.01-.67,.38-.9,1.13-.64,2.28-1.25,3.37-1.94,2.96-1.88,5.48-4.22,7.39-7.19,1.26-1.97,2.18-4.1,2.86-6.33,.49-1.6,.91-3.23,1.11-4.89,.24-2.01,.21-4.02-.11-6.02-.43-2.67-1.3-5.18-2.8-7.44-.46-.69-1.01-1.33-1.54-1.96-.09-.11-.37-.17-.51-.12-.11,.04-.22,.32-.19,.44,.51,1.71,.86,3.46,1.02,5.24,.16,1.78,.15,3.55-.17,5.3-.39,2.2-1.14,4.29-2.32,6.19-.73,1.17-1.58,2.27-2.39,3.39-.22,.3-.56,.33-.83,.13-.26-.19-.31-.54-.12-.84,.05-.08,.12-.16,.17-.24,.62-1.11,1.31-2.2,1.85-3.35,.91-1.93,1.41-3.99,1.64-6.11,.18-1.67,.15-3.33-.14-4.98-.42-2.4-1.24-4.67-2.31-6.86-.27-.55-.53-1.1-1.06-1.45-.92-.61-1.97-.69-3.02-.72-.38-.01-.7,.39-.68,.78,0,.22,.08,.45,.15,.66,.8,2.12,1.29,4.31,1.46,6.56,.14,1.91,.06,3.81-.32,5.69-.09,.48-.21,.95-.32,1.42-.08,.33-.34,.51-.61,.45-.3-.06-.45-.28-.43-.63,0-.06,.01-.13,.02-.19,.07-.77,.19-1.55,.21-2.32,.05-2.07-.3-4.09-.88-6.07-.51-1.73-1.19-3.38-2.06-4.96-.45-.81-1.14-1.11-2.01-.81-.52,.18-1.03,.39-1.53,.63-.73,.35-1.06,1.18-.93,1.96,.23,1.36,.47,2.73,.6,4.1,.18,1.81,.09,3.63-.18,5.44-.41,2.68-1.29,5.2-2.75,7.49-1.92,3.03-4.58,5.25-7.74,6.9-3.55,1.85-7.33,2.92-11.3,3.38-2.2,.25-4.39,.18-6.58-.09-.33-.04-.61-.03-.79,.28-.19,.32-.06,.59,.14,.86,1.52,2.12,3.24,4.06,5.2,5.78,.58,.51,1.25,.82,2,.92,1.89,.26,3.78,.26,5.66-.02,2.31-.35,4.58-.87,6.81-1.57,2.68-.84,5.27-1.91,7.67-3.37,1.06-.65,2.06-1.4,3.08-2.11,.31-.22,.61-.24,.86-.04,.22,.18,.32,.53,.17,.79-.08,.15-.22,.27-.35,.37-5.27,4.19-11.26,6.75-17.91,7.78-.58,.09-1.16,.14-1.74,.21-.37,.04-.64,.24-.7,.53-.07,.32,.07,.58,.44,.78,.73,.38,1.45,.78,2.19,1.13,2.2,1.04,4.5,1.83,6.87,2.39,2.1,.49,4.23,.77,6.39,.86,1.11,.05,2.23,0,3.34-.05,1.61-.06,3.21-.28,4.79-.59,2.54-.5,5-1.29,7.36-2.35,3.23-1.45,6.19-3.34,8.8-5.74,1.11-1.02,2.26-2.04,3.12-3.24,3.78-5.29,5.6-11.25,5.67-17.95h0ZM36.37,2.6c-1.03,.09-2.71,.17-4.36,.4-3.1,.42-6.09,1.3-8.94,2.58-6.23,2.8-11.21,7.06-14.94,12.78-2.93,4.5-4.68,9.45-5.3,14.79-.22,1.95-.32,3.91-.14,5.87,.14,1.43,.27,2.86,.51,4.28,.41,2.48,1.16,4.87,2.15,7.18,.51,1.18,1.38,2.02,2.58,2.47,1.1,.41,2.26,.63,3.43,.81,1.64,.25,3.28,.3,4.92,.13,2.06-.21,4.06-.69,6.02-1.36,2.9-.98,5.56-2.4,7.85-4.45,3.03-2.71,4.9-6.03,5.31-10.12,.25-2.43,.04-4.82-.42-7.19-.03-.17-.25-.38-.41-.42-.15-.04-.4,.08-.52,.22-.21,.24-.36,.54-.52,.82-1.59,2.82-2.28,5.88-2.49,9.08-.05,.79-.04,1.58-.06,2.37-.02,.52-.52,.8-.97,.54-.11-.06-.21-.15-.32-.22-1.43-1.02-2.84-2.06-4.05-3.35-2.11-2.25-3.29-4.94-3.83-7.95-.27-1.48-.32-2.97-.11-4.46,.22-1.53,.65-3.02,1.14-4.48,.92-2.71,2.34-5.1,4.4-7.11,2.02-1.97,4.4-3.38,7.01-4.41,2.15-.84,4.37-1.37,6.67-1.54,1.88-.14,3.76-.04,5.63,.29,2.59,.46,5.03,1.32,7.35,2.54,2.28,1.2,4.38,2.66,6.32,4.36,2.65,2.31,4.86,4.99,6.64,8.02,1.88,3.23,3.16,6.69,3.84,10.37,.08,.44,.14,.87,.23,1.31,.02,.1,.15,.17,.23,.26,.06-.1,.14-.19,.19-.29,.02-.04,0-.11,0-.16-.11-1.39-.17-2.79-.32-4.17-.28-2.55-.93-5.02-1.84-7.41-2.02-5.35-5.16-9.95-9.47-13.73-6.51-5.71-14.12-8.52-23.41-8.66h0Z"/>
  </g>
</svg>