<svg width="186" height="40" viewBox="0 0 186 40" fill="none" xmlns="http://www.w3.org/2000/svg">
<path d="M39.9998 19.9983C40.051 31.0159 30.9799 40.141 19.7381 39.9991C8.89699 39.8631 -0.0204445 31.0042 3.52048e-05 19.9764C0.0205149 8.90325 8.92625 0.236018 19.5216 0.00493066C31.0121 -0.24517 40.0583 9.05389 39.9983 19.9969L39.9998 19.9983ZM37.1312 22.4058C37.1165 22.1147 37.1209 21.7154 37.0741 21.322C36.9834 20.5454 36.9015 19.7658 36.7523 18.9994C36.4407 17.4008 35.8775 15.887 35.0993 14.4566C33.6628 11.8182 31.6631 9.71498 29.0607 8.19682C27.5657 7.32513 25.9624 6.7518 24.2451 6.52217C23.1962 6.38176 22.1474 6.38469 21.0985 6.5485C19.3767 6.81469 17.8115 7.44652 16.4555 8.5493C14.4982 10.142 13.442 12.2335 13.1231 14.7111C13.0105 15.5872 13.0778 16.4618 13.2972 17.3218C13.6102 18.5519 14.2085 19.6298 15.0248 20.5936C15.1155 20.7004 15.2384 20.7501 15.351 20.6872C15.4344 20.6404 15.5163 20.5307 15.5324 20.4371C15.6919 19.4718 15.9186 18.5255 16.2741 17.6144C16.7627 16.3624 17.4443 15.2362 18.4274 14.306C19.3928 13.3919 20.5338 12.7966 21.8226 12.4997C22.9066 12.2496 24.0066 12.2043 25.1154 12.3432C26.1555 12.4734 27.1342 12.782 28.0499 13.2837C29.5025 14.0808 30.6113 15.2333 31.4451 16.6549C32.1429 17.8454 32.5891 19.1281 32.8319 20.4869C33.0513 21.711 33.0967 22.9396 32.9533 24.1696C32.7865 25.6146 32.4121 27.0099 31.8635 28.3584C31.1818 30.0345 30.1959 31.503 28.8588 32.7315C27.3843 34.0859 25.6625 35.0424 23.8369 35.8293C23.6248 35.92 23.4303 35.8615 23.3498 35.6947C23.2606 35.5075 23.3425 35.3305 23.5575 35.2077C24.1675 34.8625 24.7878 34.532 25.3802 34.1576C26.9806 33.1425 28.3439 31.8774 29.3723 30.2715C30.054 29.2053 30.5513 28.0571 30.92 26.8491C31.1833 25.9832 31.41 25.1057 31.5197 24.2062C31.6514 23.1209 31.6338 22.0357 31.4598 20.9534C31.2272 19.5098 30.7591 18.1555 29.9472 16.9343C29.6985 16.5613 29.403 16.2176 29.1134 15.8753C29.0622 15.8154 28.9159 15.7832 28.8398 15.811C28.7813 15.8315 28.7184 15.9821 28.7374 16.0494C29.011 16.9752 29.1997 17.9171 29.286 18.8795C29.3723 19.8389 29.365 20.7955 29.1968 21.7447C28.9846 22.9352 28.5794 24.0614 27.9416 25.0881C27.5481 25.7229 27.0888 26.3152 26.65 26.9207C26.5329 27.0816 26.3457 27.0977 26.2009 26.9909C26.0619 26.8885 26.0341 26.6984 26.1365 26.5361C26.1643 26.4922 26.1994 26.4512 26.2257 26.4059C26.5622 25.8048 26.9323 25.2197 27.2249 24.5982C27.7178 23.5553 27.9885 22.4438 28.1113 21.2971C28.2079 20.3962 28.1947 19.4981 28.0382 18.606C27.81 17.3087 27.3682 16.0816 26.7919 14.8998C26.6485 14.6044 26.5081 14.306 26.2213 14.1173C25.7254 13.7897 25.1579 13.7458 24.5917 13.7283C24.3884 13.7224 24.2143 13.9389 24.2217 14.1495C24.226 14.268 24.2626 14.3908 24.305 14.5035C24.7351 15.6472 25.0013 16.8304 25.092 18.0473C25.1681 19.0769 25.1228 20.1037 24.9209 21.1201C24.8697 21.3776 24.8097 21.6335 24.7453 21.888C24.7 22.065 24.5596 22.1615 24.4133 22.1322C24.2509 22.1015 24.1705 21.9831 24.1822 21.7944C24.1836 21.7593 24.1895 21.7242 24.1924 21.6891C24.2319 21.2708 24.2948 20.854 24.3065 20.4342C24.3358 19.3153 24.147 18.2242 23.8325 17.1536C23.5575 16.2205 23.1874 15.3269 22.7179 14.4742C22.475 14.034 22.1005 13.876 21.631 14.0354C21.3501 14.1305 21.0736 14.246 20.8059 14.3747C20.4139 14.5634 20.2325 15.0124 20.3042 15.4351C20.43 16.1708 20.5573 16.9094 20.6289 17.6509C20.7255 18.6308 20.6787 19.6137 20.5295 20.5892C20.3086 22.0386 19.8331 23.3974 19.0447 24.6376C18.0046 26.2743 16.5681 27.4765 14.8639 28.3687C12.9476 29.3705 10.9011 29.9468 8.75656 30.1925C7.56874 30.3285 6.38531 30.2905 5.20334 30.1442C5.02487 30.1223 4.87566 30.1296 4.77473 30.2934C4.6694 30.466 4.74108 30.6123 4.84787 30.76C5.66998 31.9052 6.60035 32.9524 7.65651 33.8855C7.9681 34.1605 8.33088 34.3272 8.73901 34.3843C9.75861 34.5247 10.7811 34.5261 11.7978 34.374C13.0456 34.1868 14.2729 33.9016 15.4783 33.5257C16.928 33.0738 18.3235 32.4961 19.6225 31.7063C20.1959 31.3567 20.7343 30.9501 21.2857 30.5669C21.4554 30.4485 21.6163 30.4368 21.7524 30.5479C21.8738 30.6474 21.9235 30.836 21.8445 30.9764C21.8007 31.0554 21.7275 31.1212 21.6558 31.1783C18.8062 33.4424 15.5719 34.8259 11.9807 35.3817C11.6691 35.43 11.3546 35.4578 11.0415 35.4929C10.8426 35.5148 10.6977 35.6231 10.6641 35.7795C10.6246 35.9536 10.7007 36.094 10.8996 36.1993C11.2931 36.407 11.6808 36.622 12.083 36.8121C13.2738 37.3752 14.5128 37.8023 15.7972 38.1036C16.9338 38.3698 18.0851 38.5204 19.248 38.5701C19.8492 38.5965 20.4519 38.5658 21.0546 38.5453C21.9265 38.5146 22.7895 38.3961 23.6438 38.2264C25.0189 37.9544 26.3442 37.5288 27.6213 36.954C29.3679 36.1686 30.9653 35.1492 32.377 33.8548C32.9753 33.3063 33.5984 32.7549 34.0651 32.1026C36.1101 29.2418 37.0931 26.0242 37.1297 22.4043L37.1312 22.4058ZM19.6547 1.40315C19.0988 1.45142 18.1918 1.4953 17.2966 1.61815C15.6216 1.84631 14.0081 2.32019 12.4663 3.01345C9.10179 4.52575 6.40725 6.82785 4.39439 9.91827C2.80868 12.352 1.86369 15.0256 1.53162 17.9083C1.41021 18.9599 1.35755 20.0203 1.45702 21.0777C1.53016 21.85 1.60476 22.6251 1.73203 23.3901C1.95585 24.7298 2.35812 26.0227 2.89645 27.2703C3.17146 27.9065 3.64249 28.3599 4.29053 28.6027C4.88737 28.8265 5.512 28.9449 6.14394 29.04C7.02896 29.1746 7.91543 29.2009 8.80337 29.1102C9.91659 28.9976 10.9991 28.7358 12.0582 28.376C13.6249 27.8451 15.0599 27.0801 16.2989 25.9715C17.9373 24.5075 18.9452 22.7158 19.169 20.5044C19.3021 19.1939 19.1895 17.9025 18.9423 16.6169C18.9247 16.5262 18.8092 16.4136 18.7185 16.3902C18.638 16.3697 18.502 16.4355 18.4391 16.5072C18.325 16.6373 18.243 16.7968 18.1567 16.9489C17.2981 18.4714 16.9221 20.1285 16.8095 21.8558C16.7817 22.2814 16.7905 22.71 16.7773 23.1356C16.7685 23.4149 16.495 23.567 16.2507 23.4296C16.1892 23.3945 16.1351 23.3506 16.0781 23.3096C15.3057 22.7582 14.5421 22.1981 13.8882 21.5019C12.7472 20.2865 12.1123 18.8312 11.8168 17.2078C11.672 16.4063 11.6413 15.6048 11.7554 14.7989C11.8739 13.9696 12.105 13.1696 12.3727 12.3783C12.8701 10.9143 13.638 9.62283 14.7483 8.53906C15.8411 7.47285 17.124 6.71231 18.5385 6.15799C19.7 5.70459 20.901 5.41646 22.143 5.32725C23.1611 5.25412 24.1748 5.30385 25.1842 5.48374C26.5827 5.73384 27.9007 6.19894 29.1573 6.85564C30.3919 7.5021 31.5241 8.29335 32.573 9.20892C34.0051 10.4594 35.2002 11.903 36.1584 13.544C37.1765 15.2903 37.8684 17.1609 38.2356 19.1501C38.2795 19.3855 38.3087 19.6225 38.3585 19.8565C38.3702 19.9091 38.4404 19.9501 38.4843 19.9954C38.5194 19.9428 38.5574 19.893 38.5867 19.8375C38.5984 19.8141 38.5911 19.7804 38.5882 19.7512C38.5311 18.9994 38.496 18.2462 38.4126 17.4973C38.259 16.1211 37.9094 14.7872 37.4208 13.4943C36.3281 10.6028 34.6326 8.11638 32.3053 6.07609C28.7886 2.99297 24.6737 1.47189 19.6561 1.39877L19.6547 1.40315Z" fill="white"/>
<path d="M56.7557 14.0909V9.63636H74.4545V14.0909H68.3295V30H62.8807V14.0909H56.7557ZM81.718 30.2784C80.0874 30.2784 78.6821 29.9669 77.5021 29.3438C76.3288 28.714 75.424 27.8125 74.7876 26.6392C74.1579 25.4593 73.843 24.0473 73.843 22.4034C73.843 20.8258 74.1612 19.447 74.7976 18.267C75.4339 17.0871 76.3321 16.169 77.4922 15.5128C78.6522 14.8565 80.0211 14.5284 81.5987 14.5284C82.7521 14.5284 83.7962 14.7074 84.7308 15.0653C85.6655 15.4233 86.4643 15.9437 87.1271 16.6264C87.79 17.3026 88.3004 18.1245 88.6584 19.0923C89.0163 20.0601 89.1953 21.1506 89.1953 22.3636V23.6364H75.5533V20.6136H84.1442C84.1375 20.1761 84.0249 19.7917 83.8061 19.4602C83.594 19.1222 83.3056 18.8603 82.9411 18.6747C82.5831 18.4825 82.1754 18.3864 81.718 18.3864C81.2739 18.3864 80.8662 18.4825 80.495 18.6747C80.1238 18.8603 79.8255 19.1188 79.6001 19.4503C79.3814 19.7817 79.2654 20.1695 79.2521 20.6136V23.875C79.2521 24.3655 79.3549 24.803 79.5604 25.1875C79.7659 25.572 80.0608 25.8736 80.4453 26.0923C80.8298 26.3111 81.2938 26.4205 81.8374 26.4205C82.2152 26.4205 82.5599 26.3674 82.8714 26.2614C83.1896 26.1553 83.4614 26.0028 83.6868 25.804C83.9122 25.5985 84.0779 25.3532 84.1839 25.0682H89.1953C89.023 26.1288 88.6153 27.0502 87.9723 27.8324C87.3293 28.608 86.4775 29.2112 85.4169 29.642C84.3629 30.0663 83.13 30.2784 81.718 30.2784ZM98.793 30.2784C97.1358 30.2784 95.7172 29.9503 94.5373 29.294C93.3574 28.6312 92.4525 27.7098 91.8228 26.5298C91.1931 25.3433 90.8782 23.9678 90.8782 22.4034C90.8782 20.839 91.1931 19.4669 91.8228 18.2869C92.4525 17.1004 93.3574 16.179 94.5373 15.5227C95.7172 14.8598 97.1358 14.5284 98.793 14.5284C100.291 14.5284 101.587 14.8002 102.681 15.3438C103.781 15.8807 104.633 16.643 105.236 17.6307C105.839 18.6117 106.144 19.7652 106.151 21.0909H101.06C100.987 20.2888 100.755 19.679 100.364 19.2614C99.9795 18.8371 99.4824 18.625 98.8725 18.625C98.3952 18.625 97.9776 18.7642 97.6197 19.0426C97.2617 19.3144 96.9833 19.7287 96.7844 20.2855C96.5856 20.8357 96.4862 21.5284 96.4862 22.3636C96.4862 23.1989 96.5856 23.8949 96.7844 24.4517C96.9833 25.0019 97.2617 25.4162 97.6197 25.6946C97.9776 25.9664 98.3952 26.1023 98.8725 26.1023C99.2769 26.1023 99.6348 26.0095 99.9464 25.8239C100.258 25.6316 100.51 25.3532 100.702 24.9886C100.901 24.6174 101.02 24.1667 101.06 23.6364H106.151C106.131 24.982 105.823 26.1553 105.226 27.1562C104.63 28.1506 103.784 28.9195 102.691 29.4631C101.604 30.0066 100.304 30.2784 98.793 30.2784ZM113.904 21.4091V30H108.415V9.63636H113.705V17.6307H113.864C114.209 16.6562 114.782 15.8973 115.585 15.3537C116.387 14.8035 117.351 14.5284 118.478 14.5284C119.558 14.5284 120.496 14.7737 121.292 15.2642C122.094 15.7547 122.714 16.4309 123.151 17.2926C123.595 18.1544 123.814 19.142 123.808 20.2557V30H118.319V21.4091C118.326 20.6534 118.137 20.0601 117.752 19.6293C117.374 19.1984 116.834 18.983 116.131 18.983C115.687 18.983 115.296 19.0824 114.958 19.2812C114.627 19.4735 114.368 19.7519 114.183 20.1165C114.004 20.4744 113.911 20.9053 113.904 21.4091ZM133.875 30.2784C132.218 30.2784 130.799 29.9503 129.619 29.294C128.439 28.6312 127.535 27.7098 126.905 26.5298C126.275 25.3433 125.96 23.9678 125.96 22.4034C125.96 20.839 126.275 19.4669 126.905 18.2869C127.535 17.1004 128.439 16.179 129.619 15.5227C130.799 14.8598 132.218 14.5284 133.875 14.5284C135.532 14.5284 136.951 14.8598 138.131 15.5227C139.311 16.179 140.215 17.1004 140.845 18.2869C141.475 19.4669 141.79 20.839 141.79 22.4034C141.79 23.9678 141.475 25.3433 140.845 26.5298C140.215 27.7098 139.311 28.6312 138.131 29.294C136.951 29.9503 135.532 30.2784 133.875 30.2784ZM133.915 26.2216C134.379 26.2216 134.78 26.0658 135.118 25.7543C135.456 25.4427 135.718 24.9986 135.903 24.4219C136.089 23.8452 136.182 23.1591 136.182 22.3636C136.182 21.5616 136.089 20.8755 135.903 20.3054C135.718 19.7287 135.456 19.2846 135.118 18.973C134.78 18.6615 134.379 18.5057 133.915 18.5057C133.424 18.5057 133.003 18.6615 132.652 18.973C132.301 19.2846 132.032 19.7287 131.847 20.3054C131.661 20.8755 131.568 21.5616 131.568 22.3636C131.568 23.1591 131.661 23.8452 131.847 24.4219C132.032 24.9986 132.301 25.4427 132.652 25.7543C133.003 26.0658 133.424 26.2216 133.915 26.2216ZM157.977 19.6989H152.926C152.9 19.3873 152.79 19.1188 152.598 18.8935C152.406 18.6681 152.157 18.4957 151.852 18.3764C151.554 18.2505 151.223 18.1875 150.858 18.1875C150.387 18.1875 149.983 18.2737 149.645 18.446C149.307 18.6184 149.141 18.8636 149.148 19.1818C149.141 19.4072 149.237 19.616 149.436 19.8082C149.642 20.0005 150.036 20.1496 150.619 20.2557L153.722 20.8125C155.286 21.0975 156.449 21.5781 157.212 22.2543C157.981 22.9238 158.368 23.822 158.375 24.9489C158.368 26.036 158.044 26.9806 157.401 27.7827C156.764 28.5781 155.893 29.1946 154.786 29.6321C153.685 30.063 152.429 30.2784 151.017 30.2784C148.684 30.2784 146.857 29.8011 145.538 28.8466C144.226 27.892 143.493 26.6326 143.341 25.0682H148.79C148.863 25.5521 149.101 25.9266 149.506 26.1918C149.917 26.4503 150.434 26.5795 151.057 26.5795C151.561 26.5795 151.975 26.4934 152.3 26.321C152.631 26.1487 152.8 25.9034 152.807 25.5852C152.8 25.2936 152.654 25.0616 152.369 24.8892C152.091 24.7169 151.653 24.5777 151.057 24.4716L148.352 23.9943C146.795 23.7225 145.628 23.2055 144.852 22.4432C144.077 21.6809 143.692 20.6998 143.699 19.5C143.692 18.4394 143.971 17.5412 144.534 16.8054C145.104 16.063 145.916 15.4995 146.97 15.1151C148.031 14.724 149.287 14.5284 150.739 14.5284C152.946 14.5284 154.686 14.9858 155.959 15.9006C157.238 16.8153 157.911 18.0814 157.977 19.6989ZM167.836 30.2784C166.179 30.2784 164.76 29.9503 163.58 29.294C162.4 28.6312 161.496 27.7098 160.866 26.5298C160.236 25.3433 159.921 23.9678 159.921 22.4034C159.921 20.839 160.236 19.4669 160.866 18.2869C161.496 17.1004 162.4 16.179 163.58 15.5227C164.76 14.8598 166.179 14.5284 167.836 14.5284C169.334 14.5284 170.63 14.8002 171.724 15.3438C172.824 15.8807 173.676 16.643 174.279 17.6307C174.882 18.6117 175.187 19.7652 175.194 21.0909H170.103C170.03 20.2888 169.798 19.679 169.407 19.2614C169.022 18.8371 168.525 18.625 167.915 18.625C167.438 18.625 167.021 18.7642 166.663 19.0426C166.305 19.3144 166.026 19.7287 165.827 20.2855C165.629 20.8357 165.529 21.5284 165.529 22.3636C165.529 23.1989 165.629 23.8949 165.827 24.4517C166.026 25.0019 166.305 25.4162 166.663 25.6946C167.021 25.9664 167.438 26.1023 167.915 26.1023C168.32 26.1023 168.678 26.0095 168.989 25.8239C169.301 25.6316 169.553 25.3532 169.745 24.9886C169.944 24.6174 170.063 24.1667 170.103 23.6364H175.194C175.174 24.982 174.866 26.1553 174.269 27.1562C173.673 28.1506 172.827 28.9195 171.734 29.4631C170.647 30.0066 169.347 30.2784 167.836 30.2784Z" fill="white"/>
<path d="M183.756 30.3636L183.239 16.3636H178.705L178.188 30.3636H183.756ZM180.972 9.68182C180.203 9.68182 179.543 9.95028 178.993 10.4872C178.449 11.0308 178.181 11.6903 178.188 12.4659C178.181 13.2216 178.449 13.8679 178.993 14.4048C179.543 14.9418 180.203 15.2102 180.972 15.2102C181.701 15.2102 182.344 14.9418 182.901 14.4048C183.464 13.8679 183.749 13.2216 183.756 12.4659C183.749 11.9489 183.613 11.4782 183.348 11.054C183.089 10.6364 182.751 10.3016 182.334 10.0497C181.916 9.80445 181.462 9.68182 180.972 9.68182Z" fill="white"/>
</svg>
