<svg width="250" height="250" viewBox="0 0 250 250" fill="none" xmlns="http://www.w3.org/2000/svg">
<g clip-path="url(#clip0_2004_2)">
<path d="M250 124.986C250.32 193.846 193.626 250.878 123.363 249.991C55.6063 249.141 -0.128023 193.773 -2.41094e-05 124.849C0.127975 55.6419 55.7892 1.47169 122.01 0.0273986C193.827 -1.53573 250.366 56.5834 249.991 124.977L250 124.986ZM232.071 140.033C231.98 138.213 232.007 135.718 231.714 133.259C231.148 128.405 230.636 123.533 229.703 118.743C227.756 108.752 224.236 99.2906 219.372 90.3506C210.393 73.8601 197.895 60.7152 181.63 51.2267C172.286 45.7786 162.266 42.1953 151.532 40.7601C144.977 39.8826 138.422 39.9009 131.866 40.9247C121.105 42.5884 111.322 46.5373 102.847 53.4297C90.614 63.3844 84.0129 76.4562 82.0198 91.9412C81.3158 97.4167 81.7364 102.883 83.1078 108.258C85.0643 115.946 88.8037 122.683 93.9054 128.707C94.4723 129.374 95.2402 129.685 95.9442 129.292C96.4654 128.999 96.9774 128.314 97.0779 127.729C98.0745 121.695 99.4916 115.781 101.713 110.086C104.767 102.261 109.028 95.2228 115.171 89.4091C121.206 83.6959 128.337 79.9755 136.392 78.1198C143.167 76.5567 150.042 76.2733 156.972 77.1417C163.473 77.9553 169.589 79.8841 175.313 83.0195C184.391 88.0014 191.322 95.2046 196.533 104.09C200.894 111.531 203.683 119.547 205.2 128.039C206.572 135.69 206.855 143.369 205.959 151.057C204.917 160.088 202.576 168.809 199.148 177.237C194.887 187.712 188.725 196.89 180.369 204.569C171.153 213.033 160.392 219.012 148.981 223.93C147.656 224.496 146.44 224.131 145.937 223.089C145.379 221.919 145.891 220.812 147.235 220.045C151.048 217.887 154.924 215.821 158.627 213.481C168.629 207.137 177.15 199.23 183.578 189.193C187.838 182.529 190.947 175.354 193.251 167.803C194.896 162.392 196.314 156.907 196.999 151.285C197.822 144.503 197.712 137.72 196.624 130.955C195.171 121.933 192.245 113.468 187.171 105.836C185.617 103.505 183.77 101.357 181.959 99.2175C181.639 98.8427 180.725 98.6416 180.25 98.8153C179.884 98.9433 179.491 99.8848 179.61 100.305C181.319 106.092 182.499 111.978 183.038 117.993C183.578 123.99 183.532 129.968 182.481 135.901C181.155 143.342 178.622 150.38 174.636 156.797C172.177 160.765 169.306 164.467 166.563 168.251C165.832 169.257 164.661 169.357 163.756 168.69C162.888 168.05 162.714 166.862 163.354 165.847C163.528 165.573 163.747 165.317 163.912 165.033C166.014 161.276 168.328 157.62 170.156 153.735C173.237 147.217 174.929 140.27 175.697 133.104C176.3 127.473 176.218 121.86 175.24 116.284C173.813 108.176 171.052 100.506 167.45 93.1204C166.554 91.2739 165.676 89.4091 163.884 88.2299C160.785 86.1823 157.237 85.9081 153.699 85.7984C152.428 85.7618 151.34 87.1147 151.386 88.431C151.413 89.1714 151.642 89.9393 151.907 90.6431C154.595 97.7915 156.259 105.187 156.826 112.792C157.301 119.227 157.018 125.644 155.756 131.997C155.436 133.606 155.061 135.206 154.659 136.797C154.376 137.903 153.498 138.506 152.584 138.323C151.569 138.131 151.066 137.391 151.139 136.212C151.148 135.992 151.185 135.773 151.203 135.553C151.45 132.939 151.843 130.334 151.916 127.71C152.099 120.717 150.92 113.898 148.954 107.207C147.235 101.375 144.922 95.7896 141.987 90.4603C140.47 87.7088 138.129 86.7216 135.194 87.718C133.439 88.3122 131.711 89.0343 130.038 89.8387C127.587 91.0179 126.454 93.8242 126.902 96.466C127.688 101.064 128.483 105.68 128.931 110.315C129.535 116.439 129.242 122.582 128.31 128.679C126.929 137.738 123.958 146.23 119.03 153.982C112.529 164.211 103.551 171.725 92.8997 177.301C80.9227 183.562 68.1319 187.164 54.7286 188.7C47.3047 189.55 39.9082 189.312 32.5208 188.398C31.4054 188.261 30.4728 188.307 29.842 189.33C29.1837 190.409 29.6317 191.323 30.2991 192.246C35.4374 199.404 41.2522 205.949 47.8533 211.781C49.8007 213.5 52.0681 214.542 54.6189 214.898C60.9914 215.776 67.3822 215.785 73.7364 214.834C81.5352 213.664 89.206 211.882 96.7397 209.532C105.8 206.708 114.522 203.097 122.641 198.161C126.225 195.976 129.59 193.435 133.036 191.04C134.097 190.299 135.103 190.226 135.953 190.921C136.712 191.543 137.023 192.722 136.529 193.599C136.255 194.093 135.798 194.504 135.35 194.861C117.539 209.011 97.3248 217.659 74.8793 221.132C72.9319 221.434 70.9662 221.608 69.0096 221.827C67.7662 221.964 66.8611 222.641 66.6508 223.619C66.4039 224.707 66.8794 225.584 68.1228 226.242C70.5822 227.54 73.005 228.884 75.5193 230.072C82.9615 233.592 90.7054 236.261 98.7328 238.144C105.837 239.808 113.032 240.749 120.301 241.06C124.058 241.225 127.825 241.033 131.592 240.905C137.041 240.713 142.435 239.972 147.775 238.912C156.369 237.212 164.652 234.552 172.634 230.959C183.55 226.05 193.534 219.679 202.357 211.589C206.096 208.161 209.991 204.715 212.908 200.638C225.689 182.758 231.833 162.648 232.062 140.023L232.071 140.033ZM122.842 8.76629C119.368 9.06795 113.7 9.34218 108.104 10.11C97.6357 11.536 87.5512 14.4978 77.9147 18.8306C56.8863 28.2825 40.0453 42.6706 27.4649 61.9858C17.5541 77.1966 11.6479 93.9065 9.57246 111.924C8.81361 118.496 8.48447 125.123 9.10618 131.732C9.56332 136.559 10.0296 141.404 10.825 146.184C12.2239 154.558 14.7381 162.638 18.1027 170.436C19.8215 174.412 22.7655 177.246 26.8157 178.763C30.546 180.162 34.4499 180.902 38.3996 181.497C43.931 182.338 49.4715 182.502 55.0212 181.935C61.9788 181.231 68.7445 179.595 75.3639 177.346C85.1558 174.028 94.1248 169.247 101.869 162.319C112.109 153.168 118.408 141.97 119.807 128.149C120.639 119.959 119.935 111.887 118.39 103.852C118.28 103.285 117.558 102.581 116.991 102.435C116.488 102.307 115.638 102.719 115.245 103.166C114.532 103.98 114.02 104.976 113.48 105.927C108.113 115.443 105.764 125.8 105.06 136.595C104.886 139.256 104.941 141.934 104.858 144.594C104.804 146.34 103.094 147.291 101.567 146.431C101.183 146.212 100.845 145.938 100.488 145.682C95.6608 142.236 90.8883 138.734 86.8015 134.383C79.6701 126.787 75.7021 117.692 73.8553 107.545C72.9502 102.536 72.7582 97.5264 73.4713 92.4896C74.2119 87.3066 75.6564 82.3065 77.3296 77.3611C80.4381 68.2109 85.2381 60.1393 92.1774 53.3657C99.0071 46.7019 107.025 41.9485 115.866 38.484C123.126 35.6503 130.632 33.8495 138.394 33.2919C144.758 32.8348 151.093 33.1456 157.402 34.27C166.142 35.8331 174.38 38.74 182.234 42.8443C189.95 46.8847 197.027 51.83 203.582 57.5524C212.533 65.368 220.003 74.3903 225.991 84.6466C232.354 95.5611 236.679 107.253 238.974 119.684C239.248 121.156 239.431 122.637 239.742 124.1C239.815 124.429 240.254 124.685 240.528 124.968C240.747 124.639 240.985 124.328 241.168 123.981C241.241 123.834 241.195 123.624 241.177 123.441C240.821 118.743 240.601 114.035 240.08 109.355C239.12 100.753 236.935 92.4165 233.881 84.3358C227.052 66.2638 216.455 50.7239 201.909 37.9721C179.93 18.7027 154.211 9.19592 122.851 8.73887L122.842 8.76629Z" fill="white"/>
</g>
<defs>
<clipPath id="clip0_2004_2">
<rect width="250" height="250" fill="white"/>
</clipPath>
</defs>
</svg>
