<svg width="250" height="250" viewBox="0 0 250 250" fill="none" xmlns="http://www.w3.org/2000/svg">
<rect width="250" height="250" rx="20" fill="black"/>
<g clip-path="url(#clip0_2004_6)">
<path d="M237 124.488C237.288 186.462 186.263 237.79 123.027 236.992C62.0457 236.227 11.8848 186.396 12 124.364C12.1152 62.0777 62.2103 13.3245 121.809 12.0247C186.444 10.6179 237.329 62.9251 236.992 124.479L237 124.488ZM220.864 138.029C220.782 136.392 220.806 134.146 220.543 131.933C220.033 127.565 219.572 123.18 218.733 118.869C216.98 109.877 213.812 101.362 209.435 93.3156C201.354 78.4741 190.106 66.6437 175.467 58.1041C167.058 53.2008 158.039 49.9758 148.379 48.6842C142.479 47.8944 136.579 47.9108 130.68 48.8322C120.995 50.3296 112.19 53.8836 104.562 60.0868C93.5526 69.046 87.6117 80.8106 85.8179 94.7471C85.1843 99.6751 85.5628 104.595 86.7971 109.432C88.5579 116.351 91.9234 122.414 96.5149 127.836C97.0251 128.437 97.7163 128.716 98.3499 128.363C98.8189 128.099 99.2797 127.482 99.3702 126.956C100.267 121.526 101.543 116.203 103.542 111.078C106.29 104.035 110.125 97.7006 115.654 92.4682C121.085 87.3263 127.503 83.978 134.753 82.3079C140.85 80.9011 147.038 80.646 153.275 81.4276C159.126 82.1598 164.63 83.8957 169.781 86.7175C177.952 91.2013 184.19 97.6841 188.88 105.681C192.805 112.378 195.314 119.593 196.68 127.235C197.915 134.121 198.17 141.032 197.363 147.951C196.425 156.079 194.319 163.928 191.233 171.513C187.399 180.941 181.853 189.201 174.332 196.112C166.037 203.73 156.353 209.111 146.083 213.537C144.89 214.047 143.796 213.718 143.343 212.78C142.841 211.727 143.302 210.731 144.512 210.04C147.943 208.099 151.432 206.239 154.764 204.133C163.766 198.424 171.435 191.307 177.22 182.274C181.054 176.277 183.852 169.818 185.926 163.023C187.407 158.153 188.682 153.216 189.299 148.157C190.04 142.052 189.941 135.948 188.962 129.86C187.654 121.74 185.021 114.122 180.454 107.252C179.055 105.154 177.393 103.221 175.764 101.296C175.476 100.958 174.653 100.777 174.225 100.934C173.896 101.049 173.542 101.896 173.649 102.275C175.188 107.482 176.249 112.781 176.735 118.194C177.22 123.591 177.179 128.971 176.233 134.311C175.039 141.007 172.76 147.342 169.173 153.118C166.959 156.688 164.375 160.02 161.907 163.426C161.248 164.331 160.195 164.421 159.381 163.821C158.599 163.245 158.443 162.176 159.019 161.262C159.175 161.016 159.372 160.785 159.52 160.53C161.413 157.149 163.495 153.858 165.141 150.362C167.914 144.496 169.436 138.243 170.127 131.793C170.67 126.725 170.596 121.674 169.716 116.656C168.432 109.358 165.947 102.456 162.705 95.8084C161.899 94.1465 161.109 92.4682 159.496 91.4069C156.706 89.5641 153.514 89.3173 150.329 89.2186C149.186 89.1856 148.206 90.4032 148.247 91.5879C148.272 92.2543 148.478 92.9454 148.716 93.5789C151.136 100.012 152.633 106.668 153.143 113.513C153.571 119.305 153.316 125.08 152.181 130.798C151.893 132.246 151.555 133.685 151.193 135.117C150.938 136.112 150.148 136.655 149.325 136.491C148.412 136.318 147.959 135.652 148.025 134.59C148.034 134.393 148.066 134.196 148.083 133.998C148.305 131.645 148.659 129.3 148.725 126.939C148.889 120.646 147.828 114.508 146.059 108.486C144.512 103.237 142.43 98.2107 139.789 93.4143C138.423 90.938 136.316 90.0495 133.675 90.9462C132.095 91.481 130.54 92.1309 129.034 92.8549C126.829 93.9162 125.808 96.4418 126.212 98.8195C126.919 102.958 127.635 107.112 128.038 111.283C128.581 116.795 128.318 122.324 127.479 127.811C126.236 135.964 123.562 143.607 119.127 150.584C113.276 159.79 105.196 166.552 95.6098 171.571C84.8304 177.206 73.3188 180.448 61.2558 181.83C54.5743 182.595 47.9174 182.381 41.2688 181.558C40.2649 181.435 39.4256 181.476 38.8578 182.397C38.2654 183.368 38.6686 184.191 39.2693 185.022C43.8937 191.464 49.127 197.354 55.068 202.603C56.8206 204.15 58.8613 205.087 61.1571 205.408C66.8923 206.198 72.644 206.206 78.3628 205.351C85.3818 204.298 92.2855 202.693 99.0657 200.579C107.22 198.037 115.07 194.787 122.377 190.345C125.603 188.378 128.631 186.091 131.733 183.936C132.687 183.27 133.593 183.204 134.358 183.829C135.041 184.388 135.32 185.45 134.876 186.239C134.629 186.684 134.218 187.054 133.815 187.375C117.786 200.11 99.5924 207.893 79.3914 211.019C77.6387 211.291 75.8696 211.447 74.1087 211.644C72.9896 211.768 72.175 212.377 71.9858 213.257C71.7636 214.236 72.1915 215.026 73.3105 215.618C75.524 216.786 77.7046 217.996 79.9674 219.065C86.6654 222.233 93.6349 224.635 100.86 226.33C107.253 227.827 113.729 228.674 120.271 228.954C123.652 229.102 127.043 228.929 130.433 228.814C135.337 228.641 140.192 227.975 144.997 227.021C152.732 225.49 160.187 223.096 167.37 219.863C177.195 215.445 186.181 209.711 194.121 202.43C197.487 199.345 200.992 196.243 203.617 192.574C215.12 176.482 220.65 158.383 220.856 138.021L220.864 138.029ZM122.558 19.8897C119.431 20.1612 114.33 20.408 109.294 21.0991C99.8721 22.3825 90.7961 25.048 82.1233 28.9476C63.1977 37.4543 48.0408 50.4036 36.7184 67.7872C27.7987 81.477 22.4831 96.5159 20.6153 112.731C19.9323 118.646 19.6361 124.611 20.1956 130.559C20.607 134.903 21.0267 139.263 21.7426 143.566C23.0015 151.102 25.2643 158.375 28.2924 165.392C29.8394 168.971 32.489 171.521 36.1342 172.887C39.4914 174.146 43.005 174.812 46.5597 175.347C51.5379 176.104 56.5244 176.252 61.5191 175.742C67.781 175.108 73.8701 173.636 79.8275 171.612C88.6402 168.625 96.7124 164.323 103.682 158.087C112.898 149.851 118.567 139.773 119.826 127.334C120.575 119.963 119.941 112.698 118.551 105.467C118.452 104.957 117.802 104.323 117.292 104.192C116.839 104.076 116.074 104.447 115.72 104.85C115.078 105.582 114.618 106.479 114.132 107.334C109.302 115.899 107.187 125.22 106.554 134.936C106.397 137.33 106.447 139.74 106.373 142.135C106.323 143.706 104.785 144.562 103.41 143.788C103.065 143.591 102.76 143.344 102.439 143.114C98.0948 140.012 93.7995 136.861 90.1214 132.945C83.7031 126.108 80.132 117.923 78.4698 108.791C77.6552 104.282 77.4824 99.7738 78.1242 95.2407C78.7907 90.576 80.0908 86.0758 81.5966 81.625C84.3943 73.3898 88.7143 66.1254 94.9597 60.0292C101.106 54.0317 108.323 49.7537 116.28 46.6356C122.813 44.0853 129.569 42.4646 136.555 41.9627C142.282 41.5514 147.984 41.8311 153.662 42.843C161.528 44.2498 168.942 46.866 176.01 50.5599C182.955 54.1962 189.324 58.647 195.224 63.7971C203.28 70.8312 210.002 78.9513 215.392 88.1819C221.119 98.005 225.011 108.527 227.076 119.716C227.323 121.041 227.488 122.373 227.768 123.69C227.833 123.986 228.228 124.216 228.475 124.471C228.673 124.175 228.887 123.895 229.051 123.583C229.117 123.451 229.076 123.262 229.06 123.097C228.739 118.869 228.541 114.632 228.072 110.42C227.208 102.678 225.242 95.1749 222.493 87.9022C216.346 71.6375 206.81 57.6516 193.718 46.1749C173.937 28.8324 150.79 20.2764 122.566 19.865L122.558 19.8897Z" fill="white"/>
</g>
<defs>
<clipPath id="clip0_2004_6">
<rect width="225" height="225" fill="white" transform="translate(12 12)"/>
</clipPath>
</defs>
</svg>
